HIERARCHY
ROOT Hips
{
	OFFSET 0.000000 0.000000 0.000000
	CHANNELS 6 Xposition Yposition Zposition Xrotation Yrotation Zrotation
	JOINT LeftUpLeg_virtual
	{
		OFFSET 0.000000 0.000000 0.000000
		CHANNELS 3 Xrotation Yrotation Zrotation
		JOINT LeftUpLeg
		{
			OFFSET 15.427100 -6.655098 0.678600
			CHANNELS 3 Xrotation Yrotation Zrotation
			JOINT LeftLeg
			{
				OFFSET 4.081073 -39.591068 13.024000
				CHANNELS 3 Xrotation Yrotation Zrotation
				JOINT LeftFoot
				{
					OFFSET -4.081074 -37.707932 -15.979700
					CHANNELS 3 Xrotation Yrotation Zrotation
					JOINT LeftToeBase
					{
						OFFSET 5.346399 -15.068900 20.645000
						CHANNELS 3 Xrotation Yrotation Zrotation
						JOINT LeftToe_End
						{
							OFFSET 2.754700 0.931300 11.300900
							CHANNELS 3 Xrotation Yrotation Zrotation
							End Site
							{
								OFFSET 0 0 0
							}
						}
					}
				}
			}
		}
	}
	JOINT RightUpLeg_virtual
	{
		OFFSET 0.000000 0.000000 0.000000
		CHANNELS 3 Xrotation Yrotation Zrotation
		JOINT RightUpLeg
		{
			OFFSET -15.569500 -6.655098 0.678600
			CHANNELS 3 Xrotation Yrotation Zrotation
			JOINT RightLeg
			{
				OFFSET -4.081825 -39.591045 13.023800
				CHANNELS 3 Xrotation Yrotation Zrotation
				JOINT RightFoot
				{
					OFFSET 4.081824 -37.707954 -15.979600
					CHANNELS 3 Xrotation Yrotation Zrotation
					JOINT RightToeBase
					{
						OFFSET -5.346400 -15.068900 20.645000
						CHANNELS 3 Xrotation Yrotation Zrotation
						JOINT RightToe_End
						{
							OFFSET -2.754700 0.931300 11.300900
							CHANNELS 3 Xrotation Yrotation Zrotation
							End Site
							{
								OFFSET 0 0 0
							}
						}
					}
				}
			}
		}
	}
	JOINT Spine_virtual
	{
		OFFSET 0.000000 0.000000 0.000000
		CHANNELS 3 Xrotation Yrotation Zrotation
		JOINT Spine
		{
			OFFSET -0.279200 12.230698 -2.892100
			CHANNELS 3 Xrotation Yrotation Zrotation
			JOINT Spine1
			{
				OFFSET -0.232667 10.192268 -1.242267
				CHANNELS 3 Xrotation Yrotation Zrotation
				JOINT Spine1_split
				{
					OFFSET -0.232667 10.192268 -1.242267
					CHANNELS 3 Xrotation Yrotation Zrotation
					JOINT Spine2
					{
						OFFSET -0.232667 10.192268 -1.242267
						CHANNELS 3 Xrotation Yrotation Zrotation
						JOINT Neck_virtual
						{
							OFFSET 0.000000 0.000000 0.000000
							CHANNELS 3 Xrotation Yrotation Zrotation
							JOINT Neck
							{
								OFFSET -0.418800 17.814194 8.416900
								CHANNELS 3 Xrotation Yrotation Zrotation
								JOINT Head
								{
									OFFSET 0.000000 7.031097 3.806800
									CHANNELS 3 Xrotation Yrotation Zrotation
									JOINT HeadTop_End
									{
										OFFSET 0.000000 24.646606 12.978600
										CHANNELS 3 Xrotation Yrotation Zrotation
										End Site
										{
											OFFSET 0 0 0
										}
									}
								}
							}
						}
						JOINT LeftShoulder_virtual
						{
							OFFSET 0.000000 0.000000 0.000000
							CHANNELS 3 Xrotation Yrotation Zrotation
							JOINT LeftShoulder
							{
								OFFSET 8.476499 7.247704 -3.868750
								CHANNELS 3 Xrotation Yrotation Zrotation
								JOINT LeftShoulder_split
								{
									OFFSET 8.476499 7.247704 -3.868750
									CHANNELS 3 Xrotation Yrotation Zrotation
									JOINT LeftArm
									{
										OFFSET 9.308998 -2.777710 0.208600
										CHANNELS 3 Xrotation Yrotation Zrotation
										JOINT LeftForeArm
										{
											OFFSET 29.972298 0.000000 0.000000
											CHANNELS 3 Xrotation Yrotation Zrotation
											JOINT LeftHand
											{
												OFFSET 26.026505 0.000000 0.000000
												CHANNELS 3 Xrotation Yrotation Zrotation
												End Site
												{
													OFFSET 0 0 0
												}
											}
										}
									}
								}
							}
						}
						JOINT RightShoulder_virtual
						{
							OFFSET 0.000000 0.000000 0.000000
							CHANNELS 3 Xrotation Yrotation Zrotation
							JOINT RightShoulder
							{
								OFFSET -7.570500 7.247704 -3.868750
								CHANNELS 3 Xrotation Yrotation Zrotation
								JOINT RightShoulder_split
								{
									OFFSET -7.570500 7.247704 -3.868750
									CHANNELS 3 Xrotation Yrotation Zrotation
									JOINT RightArm
									{
										OFFSET -9.308998 -2.777710 0.208500
										CHANNELS 3 Xrotation Yrotation Zrotation
										JOINT RightForeArm
										{
											OFFSET -29.972300 0.000000 0.000000
											CHANNELS 3 Xrotation Yrotation Zrotation
											JOINT RightHand
											{
												OFFSET -26.026505 0.000000 0.000000
												CHANNELS 3 Xrotation Yrotation Zrotation
												End Site
												{
													OFFSET 0 0 0
												}
											}
										}
									}
								}
							}
						}
					}
				}
			}
		}
	}
}
MOTION
Frames: 10
Frame Time: 0.03333333
3.529243 97.097099 -14.228683 0.000000 0.000000 0.000000 -7.185901 3.108263 9.830824 12.537204 26.050323 -10.649598 -1.930881 3.765257 1.395204 -5.438430 1.593085 -0.132014 5.497739 -2.305961 -3.708022 0.000000 0.000000 0.000000 -6.864975 2.853915 9.486954 -1.827692 -6.430694 -17.078985 14.216120 9.897422 0.667873 -7.231368 -18.471215 28.890095 3.012451 6.016216 -19.030201 0.000000 0.000000 0.000000 -10.612837 4.897079 9.424949 1.034235 -2.699980 -0.738599 7.192056 5.007139 -0.754918 0.088980 0.001726 0.055956 0.000000 0.000000 0.000000 8.502906 6.618797 -0.429100 -1.835148 -10.085548 0.309781 -68.135474 -64.404504 -59.107945 0.000000 0.000000 0.000000 5.001506 5.139293 -1.583372 0.556802 -33.251502 -3.905771 7.016051 4.112648 -6.353352 13.074924 15.456670 -54.816745 -2.896022 -41.256819 -10.873321 0.000000 0.000000 0.000000 5.042985 5.658942 1.431413 -3.279026 1.973195 10.239830 -2.749533 1.548275 0.570391 16.804108 11.221296 46.288117 -1.940112 20.082727 20.843104 0.000000 0.000000 0.000000 
3.135180 97.548111 -13.267109 0.000000 0.000000 0.000000 -7.199840 4.031514 9.786601 11.512121 25.261803 -9.933763 -2.040435 4.090060 1.299881 -3.245416 1.838704 0.212685 4.990158 -2.186149 -4.073179 0.000000 0.000000 0.000000 -7.062434 3.603133 9.504651 -0.795376 -7.333705 -17.326761 12.278768 9.710523 0.749472 -5.876136 -17.276233 30.957252 -1.499904 6.523287 -18.850443 0.000000 0.000000 0.000000 -10.732368 5.151169 9.115196 1.509607 -2.712436 -0.618717 7.803320 4.792260 -0.831576 0.212126 -0.091701 0.152134 0.000000 0.000000 0.000000 8.940339 6.533709 -0.433436 -2.929793 -9.930606 -0.033600 -66.445788 -64.082522 -56.580208 0.000000 0.000000 0.000000 5.573388 4.932865 -1.671559 0.722452 -34.071845 -3.642018 8.498132 -0.039671 -5.881803 17.934379 13.948225 -56.970697 -0.834528 -40.717408 -9.318040 0.000000 0.000000 0.000000 5.441568 5.560199 1.329149 -3.389365 2.885534 9.451605 -1.217330 1.899247 1.353435 16.842231 13.196004 46.054265 -2.684871 23.614660 20.982372 0.000000 0.000000 0.000000 
2.723844 98.400009 -12.513695 0.000000 0.000000 0.000000 -7.169565 4.770196 9.453288 10.362411 24.418275 -8.910737 -2.243794 4.743951 1.617076 -0.218191 2.344292 0.660092 2.650094 -1.989075 -4.665119 0.000000 0.000000 0.000000 -7.007379 4.533524 9.227749 1.176321 -8.061875 -16.619030 8.874604 8.587322 0.615185 -5.666742 -16.804425 29.987915 -1.713512 6.236678 -17.464246 0.000000 0.000000 0.000000 -10.481248 5.753471 8.548073 1.939669 -2.753295 -0.179392 8.822310 4.083586 -1.126859 0.276788 -0.206353 0.145585 0.000000 0.000000 0.000000 9.871586 6.031011 -0.752460 -3.966613 -8.845223 -0.522680 -61.704161 -63.885034 -50.738333 0.000000 0.000000 0.000000 6.956765 4.388826 -1.970952 1.165642 -33.715351 -2.780896 8.844572 -2.524139 -4.394243 24.307919 11.061638 -57.838991 0.468351 -44.697386 -6.176328 0.000000 0.000000 0.000000 6.760353 5.021106 0.786966 -3.127710 4.811497 8.062286 0.398507 1.076704 1.685776 19.695643 16.257300 45.623990 -2.532937 27.974758 18.847446 0.000000 0.000000 0.000000 
2.378810 99.249954 -11.943859 0.000000 0.000000 0.000000 -7.154214 5.031028 8.860326 9.045287 23.952317 -7.731436 -2.117117 5.390801 2.271709 3.176179 2.941144 0.654148 -0.726365 -1.684020 -5.343642 0.000000 0.000000 0.000000 -6.798166 4.964738 8.681371 2.544635 -8.343872 -15.397470 6.189190 6.969472 0.374564 -4.814341 -16.621084 27.376996 -0.042545 5.594782 -15.206911 0.000000 0.000000 0.000000 -10.291298 6.685517 7.927433 2.299701 -2.880638 0.418081 10.083544 2.939503 -1.465441 0.223105 -0.285506 0.167644 0.000000 0.000000 0.000000 11.041856 5.082891 -1.229822 -4.540670 -6.878465 -1.279433 -53.650736 -63.351985 -41.710073 0.000000 0.000000 0.000000 8.761379 3.466116 -2.316484 1.896330 -32.171134 -1.266601 8.292841 -3.371165 -3.796520 30.706929 8.180648 -57.145488 1.996567 -52.779474 -0.684093 0.000000 0.000000 0.000000 8.662787 4.015678 0.035631 -2.565969 7.618655 6.456051 1.808935 -0.009220 1.415569 23.546941 19.120503 45.536461 -1.105838 32.991316 14.284737 0.000000 0.000000 0.000000 
2.012513 99.949478 -11.451462 0.000000 0.000000 0.000000 -7.143215 4.872627 8.171830 7.372693 23.809817 -6.515030 -1.408886 5.453079 3.063729 6.868226 3.167621 -0.577986 -4.081672 -1.324367 -5.755450 0.000000 0.000000 0.000000 -6.455312 4.693515 7.937563 1.851689 -7.699910 -14.420257 5.957845 6.025963 0.254799 -1.910254 -15.677164 25.981095 -1.854353 5.328745 -12.497758 0.000000 0.000000 0.000000 -10.178000 8.068886 7.402754 2.628081 -3.216787 0.987745 11.395566 1.504129 -1.745725 0.002122 -0.250563 0.131715 0.000000 0.000000 0.000000 12.224398 3.767226 -1.690043 -4.292305 -4.170342 -2.462610 -43.318880 -62.090770 -30.761055 0.000000 0.000000 0.000000 10.608688 2.231775 -2.593202 2.712955 -29.983045 0.394982 7.244027 -4.023005 -4.235904 36.692746 6.304889 -55.324140 6.678399 -63.012436 9.273750 0.000000 0.000000 0.000000 10.662217 2.632994 -0.664640 -1.729533 11.221775 5.150434 2.467912 -0.634013 0.809891 26.344017 21.575765 45.977941 1.929678 38.983469 7.258979 0.000000 0.000000 0.000000 
1.616250 100.573738 -11.300030 0.000000 0.000000 0.000000 -7.151242 4.472940 7.446722 5.411060 23.767856 -5.566052 -0.183160 4.948969 3.786850 10.287234 2.796670 -2.654749 -6.729989 -1.035399 -5.654598 0.000000 0.000000 0.000000 -6.046526 4.314531 7.164354 -1.083175 -5.673805 -13.771249 8.860120 6.368632 0.063623 2.032700 -13.643031 25.957451 -7.788993 5.265037 -9.685505 0.000000 0.000000 0.000000 -9.984630 9.602703 6.900856 2.978325 -3.830324 1.376430 12.555492 -0.050882 -1.909293 -0.227248 -0.204721 0.027060 0.000000 0.000000 0.000000 13.153846 2.319410 -1.971284 -3.142724 -1.114094 -4.133306 -32.088034 -60.186534 -19.568398 0.000000 0.000000 0.000000 12.239833 0.848277 -2.683242 3.444233 -27.780054 1.698086 5.847321 -4.988165 -6.126313 41.860696 5.633753 -52.712603 20.433812 -71.914174 28.627811 0.000000 0.000000 0.000000 12.334776 1.109247 -1.118098 -0.739050 15.337697 4.567636 2.720043 -0.947904 0.491578 26.077889 22.924736 47.395332 7.267005 46.078252 -2.540004 0.000000 0.000000 0.000000 
1.189338 101.161972 -11.707745 0.000000 0.000000 0.000000 -7.123977 4.094121 6.788919 3.262746 23.609558 -4.799417 1.033428 3.901311 4.341212 12.816826 1.891081 -4.981727 -8.776234 -0.935756 -4.530185 0.000000 0.000000 0.000000 -5.506682 4.214262 6.417158 -5.385756 -2.439508 -13.014999 14.587172 7.429040 -0.294194 4.434766 -11.443840 24.919289 -12.448389 4.831156 -7.020518 0.000000 0.000000 0.000000 -9.359610 11.135230 6.222684 3.401420 -4.662811 1.497959 13.513708 -1.565303 -1.961054 -0.261289 -0.099835 -0.007590 0.000000 0.000000 0.000000 13.752572 0.962113 -1.988514 -1.042267 1.842134 -5.995034 -21.226959 -57.734353 -9.373672 0.000000 0.000000 0.000000 13.428207 -0.519512 -2.596725 3.897203 -26.126461 2.203108 5.306257 -6.277051 -8.531377 44.697984 5.264726 -49.171088 47.140169 -76.033099 60.424300 0.000000 0.000000 0.000000 13.456911 -0.355063 -1.285139 0.117949 19.528317 4.799810 3.824556 -0.709567 0.715141 22.334746 22.408464 49.545048 16.400059 53.888806 -15.998239 0.000000 0.000000 0.000000 
0.645170 101.689499 -12.372868 0.000000 0.000000 0.000000 -6.933280 4.021985 6.256315 1.353391 23.039324 -4.320908 1.656739 2.865883 4.620965 13.835106 0.930489 -6.558283 -8.963584 -1.018581 -3.142969 0.000000 0.000000 0.000000 -4.906258 4.909899 5.823824 -10.360664 1.194826 -11.786232 21.905007 8.275046 -0.788552 4.077165 -10.095876 21.442611 -12.641742 4.154159 -4.655894 0.000000 0.000000 0.000000 -7.946097 12.652136 5.289007 3.814593 -5.538501 1.402160 14.122914 -2.847033 -1.983237 -0.102138 0.014737 -0.038348 0.000000 0.000000 0.000000 14.038452 -0.050733 -1.844297 1.781888 4.314800 -7.681403 -11.391664 -55.624220 -0.769591 0.000000 0.000000 0.000000 14.242426 -1.606077 -2.406766 3.941186 -25.336107 1.617482 5.323783 -6.428692 -10.138505 44.143967 5.008589 -43.899723 67.780769 -75.201114 85.172377 0.000000 0.000000 0.000000 13.897033 -1.496907 -1.301488 0.703860 23.274097 5.677741 6.105243 -0.610702 0.729226 16.544559 20.234758 50.919716 31.464308 60.968058 -34.793110 0.000000 0.000000 0.000000 
0.036452 101.946571 -13.152821 0.000000 0.000000 0.000000 -6.585364 4.611391 5.781631 -0.570298 21.904850 -3.898378 1.898146 2.308431 4.530499 13.794090 0.293415 -7.217276 -7.195667 -1.109432 -2.353942 0.000000 0.000000 0.000000 -4.591192 6.220525 5.416554 -15.375125 4.175414 -10.097671 29.485175 8.492340 -1.329853 1.951314 -9.640692 16.679588 -11.060218 3.596985 -2.833764 0.000000 0.000000 0.000000 -6.044539 14.133209 4.225246 4.182209 -6.189813 1.193141 14.398619 -3.622893 -2.037373 0.129068 0.012882 -0.022387 0.000000 0.000000 0.000000 14.116613 -0.512674 -1.689669 5.289157 5.941433 -8.626995 -2.201797 -54.676395 6.555084 0.000000 0.000000 0.000000 14.842197 -2.174242 -2.206827 3.667118 -25.237498 0.341955 6.183596 -5.220284 -10.126436 40.562120 4.723504 -37.030492 74.625622 -73.751741 94.706481 0.000000 0.000000 0.000000 13.766690 -2.163938 -1.336195 1.086494 25.937722 6.916418 8.792736 -0.745224 0.229151 10.309582 16.683135 50.715049 52.909234 65.512279 -58.916542 0.000000 0.000000 0.000000 
-0.565728 101.862427 -13.898205 0.000000 0.000000 0.000000 -6.041975 5.667689 5.335941 -2.937808 20.331772 -3.169579 2.533021 2.102173 4.085838 13.429722 -0.030692 -7.399629 -5.360313 -1.143801 -2.097868 0.000000 0.000000 0.000000 -4.527656 7.513727 5.071024 -19.333081 5.487677 -8.305679 36.047443 8.194186 -1.801356 -0.106139 -9.697409 12.798068 -10.806853 3.277180 -1.969646 0.000000 0.000000 0.000000 -4.100957 15.544047 3.281705 4.535078 -6.403760 1.036726 14.510706 -3.701896 -2.168570 0.278870 -0.043903 -0.043994 0.000000 0.000000 0.000000 14.242299 -0.346137 -1.680505 9.447012 6.573300 -8.301330 6.701874 -55.389532 13.121955 0.000000 0.000000 0.000000 15.320587 -2.066630 -2.111570 3.136282 -25.512988 -1.066227 7.817344 -4.094505 -8.185639 34.565006 3.751506 -30.073439 79.990743 -73.541104 101.101382 0.000000 0.000000 0.000000 13.418331 -2.298821 -1.539538 1.449716 27.303577 8.081672 11.592241 -0.647662 -0.424326 5.066108 13.134675 48.625824 75.500071 66.777236 -83.053126 0.000000 0.000000 0.000000 
